<svg xmlns="http://www.w3.org/2000/svg" viewBox="0 0 512 512" width="512" height="512">
  <defs>
    <linearGradient id="bg" x1="0" y1="0" x2="0" y2="1">
      <stop offset="0%" stop-color="#6ba870"/>
      <stop offset="100%" stop-color="#4a7a4e"/>
    </linearGradient>
    <linearGradient id="leaf1" x1="0" y1="0" x2="1" y2="1">
      <stop offset="0%" stop-color="#d4edda"/>
      <stop offset="100%" stop-color="#a8d5b0"/>
    </linearGradient>
    <linearGradient id="leaf2" x1="1" y1="0" x2="0" y2="1">
      <stop offset="0%" stop-color="#c8e6c4"/>
      <stop offset="100%" stop-color="#90c49a"/>
    </linearGradient>
  </defs>
  <!-- 背景 -->
  <rect width="512" height="512" rx="110" fill="url(#bg)"/>
  <!-- 茎 -->
  <path d="M256 420 Q248 360 240 300 Q232 240 250 180" stroke="#3a6b3e" stroke-width="16" fill="none" stroke-linecap="round"/>
  <!-- 右の葉 -->
  <path d="M250 200 Q320 160 370 190 Q350 260 290 270 Q260 260 250 200Z" fill="url(#leaf1)"/>
  <!-- 葉脈（右） -->
  <path d="M255 210 Q310 210 355 200" stroke="#7cb87a" stroke-width="4" fill="none" stroke-linecap="round" opacity="0.7"/>
  <path d="M258 230 Q300 228 335 222" stroke="#7cb87a" stroke-width="3" fill="none" stroke-linecap="round" opacity="0.6"/>
  <path d="M260 250 Q295 248 318 244" stroke="#7cb87a" stroke-width="3" fill="none" stroke-linecap="round" opacity="0.5"/>
  <!-- 左の葉 -->
  <path d="M245 290 Q175 250 140 280 Q155 350 215 355 Q242 345 245 290Z" fill="url(#leaf2)"/>
  <!-- 葉脈（左） -->
  <path d="M240 300 Q190 298 155 292" stroke="#7cb87a" stroke-width="4" fill="none" stroke-linecap="round" opacity="0.7"/>
  <path d="M240 320 Q198 318 168 314" stroke="#7cb87a" stroke-width="3" fill="none" stroke-linecap="round" opacity="0.6"/>
</svg>
